<svg xmlns="http://www.w3.org/2000/svg" width="165.169" height="53.949"><defs><linearGradient id="a" x1="-.136" y1=".501" x2="1.34" y2=".495" gradientUnits="objectBoundingBox"><stop offset="0" stop-color="#000000"/><stop offset=".06" stop-color="#f6f9fb"/><stop offset=".16" stop-color="#dce8f0"/><stop offset=".26" stop-color="#bfd5e4"/><stop offset=".32" stop-color="#adc9dc"/><stop offset=".45" stop-color="#7ea9c8"/><stop offset=".64" stop-color="#3277a9"/><stop offset=".71" stop-color="#0f5f9a"/></linearGradient><linearGradient id="b" x1="1.011" y1=".457" x2=".279" y2=".792" gradientUnits="objectBoundingBox"><stop offset="0" stop-color="#000000"/><stop offset=".09" stop-color="#f5f8fb"/><stop offset=".24" stop-color="#d8e5ef"/><stop offset=".44" stop-color="#abc7dc"/><stop offset=".68" stop-color="#6b9dc1"/><stop offset=".95" stop-color="#1c689f"/><stop offset=".99" stop-color="#0f5f9a"/></linearGradient><linearGradient id="c" x1="-.279" y1=".267" x2=".766" y2=".565" gradientUnits="objectBoundingBox"><stop offset="0" stop-color="#000000"/><stop offset=".09" stop-color="#f6f9fb"/><stop offset=".24" stop-color="#dce8f0"/><stop offset=".42" stop-color="#b2ccdf"/><stop offset=".64" stop-color="#79a6c7"/><stop offset=".89" stop-color="#3075a8"/><stop offset=".99" stop-color="#0f5f9a"/></linearGradient><linearGradient id="d" x1="1.39" y1=".238" x2="-.1" y2=".858" gradientUnits="objectBoundingBox"><stop offset="0" stop-color="#000000"/><stop offset=".09" stop-color="#f6f9fb"/><stop offset=".23" stop-color="#dce8f0"/><stop offset=".4" stop-color="#b6cee0"/><stop offset=".51" stop-color="#9cbdd5"/><stop offset=".75" stop-color="#5a91ba"/><stop offset=".99" stop-color="#0f5f9a"/></linearGradient></defs><path data-name="Tracé 554" d="M170.446 122.211l-.107-.028a27.813 27.813 0 0 1-7.361-3.479c-.5-.326-1-.663-1.49-1.018-.157-.115-1.2-.748-1.189-.926-.148 2.753 1.211 6.276 2.37 8.865a12.595 12.595 0 0 0 17.2 6.276 13.723 13.723 0 0 0 6.939-7.709 25.39 25.39 0 0 0 1.5-6.378c-.022.561-2.44 2.44-2.849 2.692a19.054 19.054 0 0 1-15.013 1.705z" transform="translate(-125.434 -91.371)" opacity=".4" fill="url(#a)"/><path data-name="Tracé 555" d="M39.621 34.37v3.5q.413.35.848.652V34.37z" fill="#000000"/><path data-name="Tracé 556" d="M42.489 35.383v4.312c.278.128.561.248.848.352v-4.664z" fill="#000000"/><path data-name="Tracé 557" d="M45.355 33.807v6.787c.281.05.563.094.848.122v-6.909z" fill="#000000"/><path data-name="Tracé 558" d="M48.224 32.354v8.4c.283-.017.565-.043.846-.078v-8.322z" fill="#000000"/><path data-name="Tracé 559" d="M51.1 30.141v10.114c.287-.085.568-.183.848-.287v-9.827z" fill="#000000"/><path data-name="Tracé 560" d="M53.955 27.085v11.91c.289-.172.572-.352.848-.55v-11.36z" fill="#000000"/><path data-name="Tracé 561" d="M56.824 24.924v13.525c.3-.335.585 0 .846-.37V24.924z" fill="#000000"/><path data-name="Tracé 562" d="M92.686 24.119v18.349h-3.009V24.119c0-5.436-3.127-8.968-8.672-8.968-5.782 0-10.324 3.775-10.324 11.742v15.575h-2.952v-29.5h2.942v5.6c2.242-4.366 6.017-6.254 10.559-6.254 7.029.004 11.456 4.666 11.456 11.805z" fill="#000000"/><path data-name="Tracé 563" d="M20.38 108.185a41.613 41.613 0 0 1-8.47.3 14.646 14.646 0 0 0 3.586 6.741 12.595 12.595 0 0 0 18.314-.076 13.73 13.73 0 0 0 3.836-9.637 13.578 13.578 0 0 0-1.194-5.258c.322.759-6.215 4.723-6.98 5.123a28.3 28.3 0 0 1-9.092 2.807z" transform="translate(-9.32 -78.451)" opacity=".4" fill="url(#b)"/><path data-name="Tracé 564" d="M30.915 27.398a15.2 15.2 0 0 1-15.28 15.4 13.977 13.977 0 0 1-12.684-7.494v18.644H0V12.642h2.951v6.845a13.974 13.974 0 0 1 12.684-7.493 15.2 15.2 0 0 1 15.28 15.404zm-2.949 0a12.417 12.417 0 0 0-12.508-12.564 12.568 12.568 0 0 0 0 25.135 12.42 12.42 0 0 0 12.508-12.571z" fill="#000000"/><path data-name="Tracé 565" d="M64.071 12.642v29.5h-3.009v-6.668a14.181 14.181 0 0 1-12.684 7.317 15.4 15.4 0 0 1 0-30.8 14.179 14.179 0 0 1 12.684 7.315v-6.664zm-3.009 14.756a12.478 12.478 0 1 0-12.447 12.569 12.372 12.372 0 0 0 12.447-12.569z" fill="#000000"/><path data-name="Tracé 566" d="M165.154 53.691v-1.74h-.217l-5.514.022 3.189-3.23c1.685-1.718 2.368-3.075 2.362-4.682a4.012 4.012 0 0 0-1.331-3.073 4.5 4.5 0 0 0-3.012-1.1h-.02a4.624 4.624 0 0 0-4.39 2.692l-.085.172.159.109 1.22.842.217.141.115-.217a2.9 2.9 0 0 1 2.2-1.7 2.435 2.435 0 0 1 .376-.028 2.379 2.379 0 0 1 2.422 2.283c.037 1.316-.909 2.414-1.957 3.518l-4.595 4.729-.065.065v.093l.024 1.139v.217h.217l8.48-.035h.217z" fill="#000000"/><g data-name="Groupe 1283"><path data-name="Tracé 567" d="M479.022 116.869a31.305 31.305 0 0 0-1.933-.957c-4.623-2.048-9.52-1.363-12.7 1.927a45.883 45.883 0 0 1-4.445 4.579 14.535 14.535 0 0 1-3.2 1.837c-.678.291-1.383.548-2.092.772a13.145 13.145 0 0 0 2.174 2.174 16.735 16.735 0 0 0 10.479 3.464 17.1 17.1 0 0 0 6.826-1.416l.028-.05a15 15 0 0 1 2.174-2.285c.652-.641 1.142-1.44 1.781-2.079.652-1.179 1.479-2.233 2.174-3.381.435-.694.794-1.42 1.2-2.122a5.283 5.283 0 0 0 .385-.652l.011-.037a33.925 33.925 0 0 0-2.862-1.774z" transform="translate(-355.787 -89.801)" fill="url(#c)" opacity=".4"/></g><path data-name="Tracé 568" d="M618.585 108.921a45.972 45.972 0 0 1-8.915.3 14.444 14.444 0 0 0 3.768 6.754 13.723 13.723 0 0 0 19.283-.074 13.425 13.425 0 0 0 4.04-9.666 13.089 13.089 0 0 0-1.255-5.273c.337.763-6.545 4.736-7.352 5.138a30.724 30.724 0 0 1-9.569 2.821z" transform="translate(-477.098 -79.006)" opacity=".4" fill="url(#d)"/><path data-name="Tracé 569" d="M137.484 37.754v-13.03h-.857v11.444a.87.87 0 0 0 .124.463l.731 1.122z" fill="#000000"/><path data-name="Tracé 570" d="M139.522 38.965a.372.372 0 0 0 .217.333l.633.307V26.557h-.857z" fill="#000000"/><path data-name="Tracé 571" d="M142.429 40.197c0 .126.13.239.318.27l.535.085V28.54h-.853z" fill="#000000"/><path data-name="Tracé 572" d="M145.312 29.919v10.872h.857V29.919z" fill="#000000"/><path data-name="Tracé 573" d="M148.208 31.062v9.461l.544-.111a.344.344 0 0 0 .307-.3v-9.05z" fill="#000000"/><path data-name="Tracé 574" d="M151.103 33.548v5.912l.652-.246a.265.265 0 0 0 .2-.217v-5.436z" fill="#000000"/><path data-name="Tracé 575" d="M153.997 32.682v4.7l.75-.792a.385.385 0 0 0 .107-.265v-3.643z" fill="#000000"/><path data-name="Tracé 576" d="M123.246 0v18.644a13.974 13.974 0 0 0-12.684-7.493 15.2 15.2 0 0 0-15.28 15.4 15.2 15.2 0 0 0 15.28 15.4 13.98 13.98 0 0 0 12.684-7.493V41.3h2.951V0zm-12.508 39.117a12.4 12.4 0 0 1-9.785-4.673 12.612 12.612 0 0 1-2.714-7.893 12.508 12.508 0 1 1 25.015 0v.518a12.435 12.435 0 0 1-12.516 12.048z" fill="#000000"/><path data-name="Tracé 577" d="M130.195 26.551a15.488 15.488 0 1 1 15.517 15.4 15.288 15.288 0 0 1-15.517-15.4zm27.966 0a12.479 12.479 0 1 0-12.449 12.566 12.373 12.373 0 0 0 12.449-12.566z" fill="#000000"/></svg>